# xmcd
#
# Track frame offsets:
#	150
#	14918
#	31655
#	44795
#	61412
#	74716
#	90850
#	100847
#	117308
#	128085
#	142024
#	161424
#	178269
#	191146
#	203559
#	216370
#	231640
#	244247
#	259174
#	271573
#	288416
#	307191
#
# Disc length: 4289 seconds
#
# Revision: 0
# Processed by: cddbd v1.4PL0 Copyright (c) Steve Scherf et al.
# Submitted via: audiograbber 1.80
#
DISCID=5810bf16
DTITLE=Various Country Artists -  C C  - The Early '80s - Hot Hits
DYEAR=1900
DGENRE=
TTITLE0=Roseanne Cash - My Baby Thinks He's A Train
TTITLE1=John Anderson - I'm Just An Old Chunk Of Coal (But I'm Gonna Be A Diamo
TTITLE1=nd Someday)
TTITLE2=The Oak Ridge Boys - Bobbie Sue
TTITLE3=Don Williams - Love Is On A Roll
TTITLE4=George Jones - Tennessee Whiskey
TTITLE5=Willie Nelson - Always On My Mind
TTITLE6=Waylon Jennings - Theme From The Dukes Of Hazzard (Good Ol' Boys)
TTITLE7=T. G. Sheppard - Party Time
TTITLE8=Johnny Lee - Pickin' Up Strangers
TTITLE9=Charlie Pride - You Win Again
TTITLE10=Merle Haggard - Are The Good Times Really Over (I Wish A Buck Was Stil
TTITLE10=l Silver)
TTITLE11=Alabama - Mountain Music
TTITLE12=Elvis Presley - Guitar Man
TTITLE13=John Conlee - Common Man
TTITLE14=Ronnie McDowell - Older Women
TTITLE15=The Bellamy Brothers - Dancin' Cowboys
TTITLE16=Dolly Parton - 9 To 5
TTITLE17=Earl Thomas Conlee - Fire And Smoke
TTITLE18=George Jones and Tammy Wynette - Two Story House
TTITLE19=Ronnie Milsap - Any Day Now
TTITLE20=Juice Newton - The Sweetest Thing (I've Ever Known)
TTITLE21=Razzy Bailey - She Left Love All Over Me
EXTD=
EXTT0=
EXTT1=
EXTT2=
EXTT3=
EXTT4=
EXTT5=
EXTT6=
EXTT7=
EXTT8=
EXTT9=
EXTT10=
EXTT11=
EXTT12=
EXTT13=
EXTT14=
EXTT15=
EXTT16=
EXTT17=
EXTT18=
EXTT19=
EXTT20=
EXTT21=
PLAYORDER=
